<svg xmlns="http://www.w3.org/2000/svg" version="1.1" xmlns:xlink="http://www.w3.org/1999/xlink" xmlns:svgjs="http://svgjs.dev/svgjs" width="2000" height="1295" viewBox="0 0 2000 1295"><g transform="matrix(1,0,0,1,-0.9084731213562236,-2.088709677419388)"><svg viewBox="0 0 383 248" data-background-color="#ffffff" preserveAspectRatio="xMidYMid meet" height="1295" width="2000" xmlns="http://www.w3.org/2000/svg" xmlns:xlink="http://www.w3.org/1999/xlink"><g id="tight-bounds" transform="matrix(1,0,0,1,0.17397260273972392,0.4000000000000057)"><svg viewBox="0 0 382.65205479452055 247.2" height="247.2" width="382.65205479452055"><g><svg viewBox="0 0 382.65205479452055 247.2" height="247.2" width="382.65205479452055"><g><svg viewBox="0 0 382.65205479452055 247.2" height="247.2" width="382.65205479452055"><g id="textblocktransform"><svg viewBox="0 0 382.65205479452055 247.2" height="247.2" width="382.65205479452055" id="textblock"><g><svg viewBox="0 0 382.65205479452055 247.2" height="247.2" width="382.65205479452055"><g transform="matrix(1,0,0,1,0,0)"><svg width="382.65205479452055" viewBox="3.75 -36.5 56.5 36.5" height="247.2" data-palette-color="#d69723"><path d="M26.6 0L3.75 0 3.75-3.35 26.6-3.35 26.6 0ZM25.6-18.05L4.75-18.05 4.75-21.25 25.6-21.25 25.6-18.05ZM26.6-33.15L3.75-33.15 3.75-36.5 26.6-36.5 26.6-33.15ZM34.6-36.5L38.6-36.5 38.6-20.25 38.7-20.25 54.9-36.5 59.75-36.5 42.2-19 60.25 0 55.45 0 38.7-17.8 38.6-17.8 38.6 0 34.6 0 34.6-36.5Z" opacity="1" transform="matrix(1,0,0,1,0,0)" fill="#d69723" class="wordmark-text-0" data-fill-palette-color="primary" id="text-0"></path></svg></g></svg></g></svg></g></svg></g><g></g></svg></g><defs></defs></svg><rect width="382.65205479452055" height="247.2" fill="none" stroke="none" visibility="hidden"></rect></g></svg></g></svg>